HIERARCHY
ROOT Hips
{
 OFFSET 0.000000 0.000000 0.000000
 CHANNELS 6 Xposition Yposition Zposition Yrotation Xrotation Zrotation
 JOINT Chest
 {
  OFFSET 0.000000 9.585900 0.002600
  CHANNELS 3 Yrotation Xrotation Zrotation
  JOINT Chest2
  {
   OFFSET 0.000000 9.601200 -0.005300
   CHANNELS 3 Yrotation Xrotation Zrotation
   JOINT Chest3
   {
    OFFSET 0.000000 9.561800 0.000000
    CHANNELS 3 Yrotation Xrotation Zrotation
    JOINT Chest4
    {
     OFFSET 0.000000 9.552100 0.000000
     CHANNELS 3 Yrotation Xrotation Zrotation
     JOINT Neck
     {
      OFFSET 0.000000 14.453000 0.000000
      CHANNELS 3 Yrotation Xrotation Zrotation
      JOINT Head
      {
       OFFSET 0.000000 8.936500 -0.011300
       CHANNELS 3 Yrotation Xrotation Zrotation
       End Site
       {
        OFFSET 0.000000 17.073600 -0.006000
       }
      }
     }
     JOINT RightCollar
     {
      OFFSET -2.921100 9.558500 0.000000
      CHANNELS 3 Yrotation Xrotation Zrotation
      JOINT RightShoulder
      {
       OFFSET -13.519700 0.000000 0.000000
       CHANNELS 3 Yrotation Xrotation Zrotation
       JOINT RightElbow
       {
        OFFSET 0.000000 -29.696600 0.000000
        CHANNELS 3 Yrotation Xrotation Zrotation
        JOINT RightWrist
        {
         OFFSET 0.000000 -24.004700 0.000000
         CHANNELS 3 Yrotation Xrotation Zrotation
         End Site
         {
          OFFSET 0.000000 -17.728500 0.000000
         }
        }
       }
      }
     }
     JOINT LeftCollar
     {
      OFFSET 2.921100 9.558500 0.000000
      CHANNELS 3 Yrotation Xrotation Zrotation
      JOINT LeftShoulder
      {
       OFFSET 13.519700 0.000000 0.000000
       CHANNELS 3 Yrotation Xrotation Zrotation
       JOINT LeftElbow
       {
        OFFSET 0.000000 -29.696600 0.000000
        CHANNELS 3 Yrotation Xrotation Zrotation
        JOINT LeftWrist
        {
         OFFSET 0.000000 -24.004700 0.000000
         CHANNELS 3 Yrotation Xrotation Zrotation
         End Site
         {
          OFFSET 0.000000 -17.728500 0.000000
         }
        }
       }
      }
     }
    }
   }
  }
 }
 JOINT RightHip
 {
  OFFSET -7.771700 -0.012900 -0.001300
  CHANNELS 3 Yrotation Xrotation Zrotation
  JOINT RightKnee
  {
   OFFSET 0.000000 -40.869800 0.001200
   CHANNELS 3 Yrotation Xrotation Zrotation
   JOINT RightAnkle
   {
    OFFSET 0.000000 -39.717900 0.002100
    CHANNELS 3 Yrotation Xrotation Zrotation
    JOINT RightToe
    {
     OFFSET 0.000000 -4.965400 11.033500
     CHANNELS 3 Yrotation Xrotation Zrotation
     End Site
     {
      OFFSET 0.000000 -1.423100 5.872300
     }
    }
   }
  }
 }
 JOINT LeftHip
 {
  OFFSET 7.771700 -0.012900 -0.001300
  CHANNELS 3 Yrotation Xrotation Zrotation
  JOINT LeftKnee
  {
   OFFSET 0.000000 -40.869800 0.001200
   CHANNELS 3 Yrotation Xrotation Zrotation
   JOINT LeftAnkle
   {
    OFFSET 0.000000 -39.717900 0.002100
    CHANNELS 3 Yrotation Xrotation Zrotation
    JOINT LeftToe
    {
     OFFSET 0.000000 -4.965400 11.033500
     CHANNELS 3 Yrotation Xrotation Zrotation
     End Site
     {
      OFFSET 0.000000 -1.423100 5.872300
     }
    }
   }
  }
 }
}
MOTION
Frames: 9
Frame Time: 0.008333
0.000000 85.388000 0.000000 0.000000 -5.767877 0.000000 0.000000 11.653817 0.000000 0.000000 -5.885947 0.000000 0.000000 -0.000000 0.000000 0.000000 -0.000000 0.000000 0.000000 12.528835 0.000000 0.000000 0.711642 0.000000 0.000000 -0.000000 0.000000 0.000000 0.000000 -90.000000 0.000000 -2.309062 0.000000 0.000000 2.309062 0.000000 0.000000 -0.000000 0.000000 0.000000 -0.000000 90.000000 0.000000 -2.309062 0.000000 0.000000 2.309062 0.000000 0.000000 8.520406 0.000000 0.000000 1.905762 0.000000 -0.000000 -4.658285 0.000000 0.000000 -0.000000 0.000000 0.000000 8.520406 0.000000 0.000000 1.905762 0.000000 -0.000000 -4.658285 0.000000 0.000000 -0.000000 0.000000
-4.948061 52.272650 30.959716 171.324752 -35.766143 -1.839988 5.101159 24.729451 2.618446 0.656392 3.992592 0.490002 1.057628 6.284739 0.777396 3.922187 20.564854 3.149176 1.146214 14.025299 0.699195 1.886909 -9.750831 0.871655 -4.603112 -0.980717 -2.584741 -8.305384 -6.123214 1.719496 -114.593087 -54.399079 135.353858 -7.058897 1.113658 15.932170 -6.201939 0.500579 0.326784 11.909276 -8.434898 1.902703 94.120396 -32.508447 -119.707806 18.337172 12.218287 -15.737807 -3.248536 -45.891606 2.050205 -135.664081 84.615395 -131.655302 -0.675213 -9.823815 -2.269546 0.657992 -1.191843 0.322437 -0.428168 -41.809904 5.125303 73.453862 83.583985 63.332492 -5.083605 -13.861963 9.860124 0.300086 1.498145 0.137573
-4.949119 52.273297 30.961905 171.305110 -35.763490 -1.851161 5.132760 24.778784 2.661819 0.655027 4.026552 0.496307 1.069010 6.368664 0.801512 3.910547 20.523635 3.138940 1.158720 14.049330 0.697178 1.911122 -9.706163 0.863278 -4.604647 -0.954953 -2.593677 -8.217034 -6.124732 1.764008 -115.240397 -55.025245 135.636272 -7.004003 0.910324 14.889678 -6.220292 0.496553 0.330416 11.739561 -8.461517 1.867501 94.525638 -33.119867 -119.466171 17.998607 11.504911 -13.651291 -3.256497 -45.906357 2.110423 -135.555452 84.611675 -131.560338 -0.715710 -9.766309 -2.280412 0.675096 -1.227945 0.346661 -0.429603 -41.812359 5.149117 73.426126 83.595693 63.304963 -5.066658 -13.862383 9.864163 0.298545 1.495869 0.135563
-4.952130 52.274947 30.962230 171.284670 -35.772498 -1.853575 5.154250 24.840668 2.690086 0.657522 4.055761 0.503709 1.071353 6.355944 0.798033 3.921511 20.573750 3.164049 1.169876 14.073312 0.692944 1.933678 -9.661683 0.851277 -4.605712 -0.926876 -2.602341 -8.129079 -6.128532 1.818682 -115.692154 -55.587460 135.760679 -6.985200 0.685233 13.991823 -6.239231 0.497798 0.337996 11.576535 -8.483030 1.818631 94.904331 -33.697598 -119.199946 17.536534 10.931359 -11.849474 -3.251891 -45.901406 2.139993 -135.492575 84.614979 -131.501836 -0.731260 -9.739556 -2.287128 0.681661 -1.232403 0.350976 -0.415200 -41.802346 5.148172 73.419568 83.598884 63.306948 -5.048187 -13.860743 9.875583 0.282217 1.497294 0.126603
-4.955958 52.276853 30.961630 171.264102 -35.786492 -1.854317 5.173181 24.947861 2.726067 0.664224 4.009087 0.492406 1.075520 6.416109 0.814431 3.925255 20.581867 3.171913 1.180612 14.097171 0.686935 1.956108 -9.617366 0.836005 -4.609245 -0.898565 -2.605813 -8.048414 -6.163430 1.864784 -115.915846 -56.094904 135.692547 -6.996637 0.438773 13.197590 -6.263472 0.504594 0.353178 11.429830 -8.497832 1.755575 95.257230 -34.239782 -118.921268 17.038920 10.513232 -10.317278 -3.246163 -45.888273 2.161555 -135.467312 84.625175 -131.480265 -0.738467 -9.720948 -2.289119 0.679224 -1.229179 0.347391 -0.393691 -41.789110 5.131225 73.457319 83.591919 63.361106 -5.013644 -13.856027 9.884455 0.255377 1.488461 0.112454
-4.959731 52.277203 30.962524 171.233733 -35.788243 -1.854213 5.201242 24.991805 2.755056 0.669841 3.980780 0.484644 1.077811 6.503003 0.838696 3.927180 20.589204 3.178006 1.191898 14.120977 0.678820 1.980423 -9.572916 0.816581 -4.613244 -0.869513 -2.606214 -7.951158 -6.197561 1.911753 -116.036336 -56.560050 135.538631 -7.018556 0.186306 12.464329 -6.289983 0.519499 0.370885 11.304617 -8.505652 1.685183 95.574768 -34.752452 -118.638386 16.561030 10.237729 -9.024130 -3.239924 -45.892432 2.203317 -135.361420 84.627554 -131.386785 -0.755960 -9.694476 -2.279882 0.684674 -1.229887 0.342178 -0.381114 -41.788333 5.138818 73.491833 83.593940 63.400811 -5.005392 -13.847145 9.894564 0.253069 1.480305 0.106149
-4.962256 52.275192 30.966041 171.192149 -35.770528 -1.859795 5.240548 25.011096 2.791735 0.672964 3.999560 0.491065 1.080653 6.483429 0.832598 3.934133 20.649042 3.204221 1.202504 14.144337 0.669337 2.003954 -9.529204 0.794938 -4.618259 -0.835390 -2.606691 -7.845061 -6.229783 1.962205 -116.087178 -56.977012 135.339873 -7.019441 -0.038899 11.748149 -6.316654 0.547109 0.386547 11.204509 -8.508216 1.614587 95.840555 -35.226693 -118.361461 16.100790 10.083345 -7.955496 -3.254609 -45.915676 2.281725 -135.148556 84.635268 -131.202051 -0.776175 -9.658326 -2.268377 0.682346 -1.228708 0.339276 -0.372494 -41.809089 5.163741 73.543176 83.588400 63.455750 -5.000903 -13.834365 9.915946 0.249415 1.472236 0.089176
-4.962066 52.274825 30.966765 171.159854 -35.773867 -1.886189 5.278863 25.044858 2.842822 0.668820 4.063750 0.506475 1.092079 6.422403 0.819545 3.937366 20.695496 3.223806 1.203399 14.118887 0.649564 2.025394 -9.439627 0.786106 -4.622532 -0.789919 -2.602973 -7.745918 -6.261365 2.017284 -116.051339 -57.323687 135.100013 -6.986315 -0.191392 11.032241 -6.344435 0.592241 0.405860 11.130671 -8.506859 1.542458 96.041033 -35.633749 -118.092598 15.630873 10.047256 -7.139294 -3.285202 -45.914053 2.363306 -135.062847 84.640513 -131.129753 -0.744833 -9.646214 -2.267342 0.645654 -1.203579 0.320190 -0.384320 -41.808078 5.207537 73.588019 83.580984 63.503439 -4.955581 -13.798622 9.925867 0.214876 1.432345 0.072136
-4.964700 52.274614 30.965484 171.143578 -35.785426 -1.904922 5.296187 25.082293 2.873268 0.670831 4.073022 0.508928 1.094465 6.448787 0.826669 3.944063 20.700181 3.229559 1.203028 14.104965 0.636684 2.031417 -9.370022 0.775855 -4.628636 -0.732925 -2.590495 -7.652541 -6.291225 2.075475 -115.902084 -57.585065 134.788369 -6.948450 -0.240694 10.356003 -6.378437 0.655063 0.432711 11.077557 -8.498687 1.467967 96.181143 -35.956530 -117.829580 15.152824 10.131522 -6.626809 -3.310205 -45.903911 2.417734 -134.978911 84.639812 -131.055542 -0.748801 -9.628790 -2.266975 0.649017 -1.202184 0.313782 -0.394452 -41.798536 5.234096 73.634422 83.590844 63.553961 -4.945883 -13.788272 9.925210 0.224834 1.418329 0.075629
